<?xml version="1.0" encoding="utf-8" standalone="no"?>
<!DOCTYPE svg PUBLIC "-//W3C//DTD SVG 1.1//EN"
  "http://www.w3.org/Graphics/SVG/1.1/DTD/svg11.dtd">
<svg xmlns:xlink="http://www.w3.org/1999/xlink" width="1008pt" height="576pt" viewBox="0 0 1008 576" xmlns="http://www.w3.org/2000/svg" version="1.1">
 <metadata>
  <rdf:RDF xmlns:dc="http://purl.org/dc/elements/1.1/" xmlns:cc="http://creativecommons.org/ns#" xmlns:rdf="http://www.w3.org/1999/02/22-rdf-syntax-ns#">
   <cc:Work>
    <dc:type rdf:resource="http://purl.org/dc/dcmitype/StillImage"/>
    <dc:date>2025-06-15T12:43:19.543624</dc:date>
    <dc:format>image/svg+xml</dc:format>
    <dc:creator>
     <cc:Agent>
      <dc:title>Matplotlib v3.6.3, https://matplotlib.org/</dc:title>
     </cc:Agent>
    </dc:creator>
   </cc:Work>
  </rdf:RDF>
 </metadata>
 <defs>
  <style type="text/css">*{stroke-linejoin: round; stroke-linecap: butt}</style>
 </defs>
 <g id="figure_1">
  <g id="patch_1">
   <path d="M 0 576 
L 1008 576 
L 1008 0 
L 0 0 
z
" style="fill: #ffffff"/>
  </g>
  <g id="axes_1">
   <g id="patch_2">
    <path d="M 433.44 457.2 
C 477.54858 457.2 519.856524 439.675476 551.046 408.486 
C 582.235476 377.296524 599.76 334.98858 599.76 290.88 
C 599.76 246.77142 582.235476 204.463476 551.046 173.274 
C 519.856524 142.084524 477.54858 124.56 433.44 124.56 
C 389.33142 124.56 347.023476 142.084524 315.834 173.274 
C 284.644524 204.463476 267.12 246.77142 267.12 290.88 
C 267.12 334.98858 284.644524 377.296524 315.834 408.486 
C 347.023476 439.675476 389.33142 457.2 433.44 457.2 
z
" clip-path="url(#p577630e70e)" style="fill: #add8e6; stroke: #0000ff; stroke-width: 2; stroke-linejoin: miter"/>
   </g>
   <g id="patch_3">
    <path d="M 488.88 290.88 
C 488.88 289.718772 488.843516 288.55783 488.770602 287.398894 
C 488.697688 286.239957 488.58838 285.083597 488.442839 283.931526 
" clip-path="url(#p577630e70e)" style="fill: none; stroke: #ff0000; stroke-linejoin: miter"/>
   </g>
   <g id="patch_4">
    <path d="M 708.017034 249.189153 
C 708.017034 250.350381 708.053518 251.511323 708.126432 252.67026 
C 708.199347 253.829196 708.308655 254.985556 708.454195 256.137628 
" clip-path="url(#p577630e70e)" style="fill: none; stroke: #ff0000; stroke-linejoin: miter"/>
   </g>
   <g id="line2d_1">
    <defs>
     <path id="m016ccfdb4c" d="M 0 3 
C 0.795609 3 1.55874 2.683901 2.12132 2.12132 
C 2.683901 1.55874 3 0.795609 3 0 
C 3 -0.795609 2.683901 -1.55874 2.12132 -2.12132 
C 1.55874 -2.683901 0.795609 -3 0 -3 
C -0.795609 -3 -1.55874 -2.683901 -2.12132 -2.12132 
C -2.683901 -1.55874 -3 -0.795609 -3 0 
C -3 0.795609 -2.683901 1.55874 -2.12132 2.12132 
C -1.55874 2.683901 -0.795609 3 0 3 
z
" style="stroke: #000000"/>
    </defs>
    <g clip-path="url(#p577630e70e)">
     <use xlink:href="#m016ccfdb4c" x="599.76" y="290.88" style="stroke: #000000"/>
    </g>
   </g>
   <g id="line2d_2">
    <g clip-path="url(#p577630e70e)">
     <use xlink:href="#m016ccfdb4c" x="598.448517" y="270.034577" style="stroke: #000000"/>
    </g>
   </g>
   <g id="line2d_3">
    <path d="M 433.44 290.88 
L 598.448517 270.034577 
" clip-path="url(#p577630e70e)" style="fill: none; stroke-dasharray: 3.7,1.6; stroke-dashoffset: 0; stroke: #000000"/>
   </g>
   <g id="line2d_4">
    <path d="M 433.44 290.88 
L 599.76 290.88 
" clip-path="url(#p577630e70e)" style="fill: none; stroke-dasharray: 3.7,1.6; stroke-dashoffset: 0; stroke: #000000"/>
   </g>
   <g id="line2d_5">
    <path d="M 763.457034 290.88 
L 599.76 290.88 
" clip-path="url(#p577630e70e)" style="fill: none; stroke: #ffa500; stroke-width: 1.5; stroke-linecap: square"/>
   </g>
   <g id="line2d_6">
    <path d="M 598.448517 270.034577 
L 763.457034 249.189153 
" clip-path="url(#p577630e70e)" style="fill: none; stroke-dasharray: 5.55,2.4; stroke-dashoffset: 0; stroke: #000000; stroke-width: 1.5"/>
   </g>
   <g id="line2d_7">
    <path d="M 763.457034 249.189153 
L 598.448517 249.189153 
" clip-path="url(#p577630e70e)" style="fill: none; stroke: #ffa500; stroke-width: 1.5; stroke-linecap: square"/>
   </g>
   <g id="text_1">
    <!-- Trái Đất -->
    <g style="fill: #0000ff" transform="translate(414.1275 490.464) scale(0.1 -0.1)">
     <defs>
      <path id="DejaVuSans-54" d="M -19 4666 
L 3928 4666 
L 3928 4134 
L 2272 4134 
L 2272 0 
L 1638 0 
L 1638 4134 
L -19 4134 
L -19 4666 
z
" transform="scale(0.015625)"/>
      <path id="DejaVuSans-72" d="M 2631 2963 
Q 2534 3019 2420 3045 
Q 2306 3072 2169 3072 
Q 1681 3072 1420 2755 
Q 1159 2438 1159 1844 
L 1159 0 
L 581 0 
L 581 3500 
L 1159 3500 
L 1159 2956 
Q 1341 3275 1631 3429 
Q 1922 3584 2338 3584 
Q 2397 3584 2469 3576 
Q 2541 3569 2628 3553 
L 2631 2963 
z
" transform="scale(0.015625)"/>
      <path id="DejaVuSans-e1" d="M 2194 1759 
Q 1497 1759 1228 1600 
Q 959 1441 959 1056 
Q 959 750 1161 570 
Q 1363 391 1709 391 
Q 2188 391 2477 730 
Q 2766 1069 2766 1631 
L 2766 1759 
L 2194 1759 
z
M 3341 1997 
L 3341 0 
L 2766 0 
L 2766 531 
Q 2569 213 2275 61 
Q 1981 -91 1556 -91 
Q 1019 -91 701 211 
Q 384 513 384 1019 
Q 384 1609 779 1909 
Q 1175 2209 1959 2209 
L 2766 2209 
L 2766 2266 
Q 2766 2663 2505 2880 
Q 2244 3097 1772 3097 
Q 1472 3097 1187 3025 
Q 903 2953 641 2809 
L 641 3341 
Q 956 3463 1253 3523 
Q 1550 3584 1831 3584 
Q 2591 3584 2966 3190 
Q 3341 2797 3341 1997 
z
M 2291 5119 
L 2913 5119 
L 1894 3944 
L 1416 3944 
L 2291 5119 
z
" transform="scale(0.015625)"/>
      <path id="DejaVuSans-69" d="M 603 3500 
L 1178 3500 
L 1178 0 
L 603 0 
L 603 3500 
z
M 603 4863 
L 1178 4863 
L 1178 4134 
L 603 4134 
L 603 4863 
z
" transform="scale(0.015625)"/>
      <path id="DejaVuSans-20" transform="scale(0.015625)"/>
      <path id="DejaVuSans-110" d="M 659 4666 
L 1959 4666 
Q 3313 4666 3947 4102 
Q 4581 3538 4581 2338 
Q 4581 1131 3945 565 
Q 3309 0 1959 0 
L 659 0 
L 659 2188 
L 31 2188 
L 31 2638 
L 659 2638 
L 659 4666 
z
M 1294 4147 
L 1294 2638 
L 2344 2638 
L 2344 2188 
L 1294 2188 
L 1294 519 
L 2053 519 
Q 3019 519 3467 956 
Q 3916 1394 3916 2338 
Q 3916 3275 3467 3711 
Q 3019 4147 2053 4147 
L 1294 4147 
z
" transform="scale(0.015625)"/>
      <path id="DejaVuSans-1ea5" d="M 1566 4775 
L 2153 4775 
L 2813 3944 
L 2378 3944 
L 1859 4500 
L 1341 3944 
L 906 3944 
L 1566 4775 
z
M 3169 5416 
L 3747 5416 
L 3034 4591 
L 2556 4591 
L 3169 5416 
z
M 2194 1759 
Q 1497 1759 1228 1600 
Q 959 1441 959 1056 
Q 959 750 1161 570 
Q 1363 391 1709 391 
Q 2188 391 2477 730 
Q 2766 1069 2766 1631 
L 2766 1759 
L 2194 1759 
z
M 3341 1997 
L 3341 0 
L 2766 0 
L 2766 531 
Q 2569 213 2275 61 
Q 1981 -91 1556 -91 
Q 1019 -91 701 211 
Q 384 513 384 1019 
Q 384 1609 779 1909 
Q 1175 2209 1959 2209 
L 2766 2209 
L 2766 2266 
Q 2766 2663 2505 2880 
Q 2244 3097 1772 3097 
Q 1472 3097 1187 3025 
Q 903 2953 641 2809 
L 641 3341 
Q 956 3463 1253 3523 
Q 1550 3584 1831 3584 
Q 2591 3584 2966 3190 
Q 3341 2797 3341 1997 
z
" transform="scale(0.015625)"/>
      <path id="DejaVuSans-74" d="M 1172 4494 
L 1172 3500 
L 2356 3500 
L 2356 3053 
L 1172 3053 
L 1172 1153 
Q 1172 725 1289 603 
Q 1406 481 1766 481 
L 2356 481 
L 2356 0 
L 1766 0 
Q 1100 0 847 248 
Q 594 497 594 1153 
L 594 3053 
L 172 3053 
L 172 3500 
L 594 3500 
L 594 4494 
L 1172 4494 
z
" transform="scale(0.015625)"/>
     </defs>
     <use xlink:href="#DejaVuSans-54"/>
     <use xlink:href="#DejaVuSans-72" x="46.333984"/>
     <use xlink:href="#DejaVuSans-e1" x="87.447266"/>
     <use xlink:href="#DejaVuSans-69" x="148.726562"/>
     <use xlink:href="#DejaVuSans-20" x="176.509766"/>
     <use xlink:href="#DejaVuSans-110" x="208.296875"/>
     <use xlink:href="#DejaVuSans-1ea5" x="285.787109"/>
     <use xlink:href="#DejaVuSans-74" x="347.066406"/>
    </g>
   </g>
   <g id="text_2">
    <!-- Syene -->
    <g transform="translate(588.672 313.056) scale(0.1 -0.1)">
     <defs>
      <path id="DejaVuSans-53" d="M 3425 4513 
L 3425 3897 
Q 3066 4069 2747 4153 
Q 2428 4238 2131 4238 
Q 1616 4238 1336 4038 
Q 1056 3838 1056 3469 
Q 1056 3159 1242 3001 
Q 1428 2844 1947 2747 
L 2328 2669 
Q 3034 2534 3370 2195 
Q 3706 1856 3706 1288 
Q 3706 609 3251 259 
Q 2797 -91 1919 -91 
Q 1588 -91 1214 -16 
Q 841 59 441 206 
L 441 856 
Q 825 641 1194 531 
Q 1563 422 1919 422 
Q 2459 422 2753 634 
Q 3047 847 3047 1241 
Q 3047 1584 2836 1778 
Q 2625 1972 2144 2069 
L 1759 2144 
Q 1053 2284 737 2584 
Q 422 2884 422 3419 
Q 422 4038 858 4394 
Q 1294 4750 2059 4750 
Q 2388 4750 2728 4690 
Q 3069 4631 3425 4513 
z
" transform="scale(0.015625)"/>
      <path id="DejaVuSans-79" d="M 2059 -325 
Q 1816 -950 1584 -1140 
Q 1353 -1331 966 -1331 
L 506 -1331 
L 506 -850 
L 844 -850 
Q 1081 -850 1212 -737 
Q 1344 -625 1503 -206 
L 1606 56 
L 191 3500 
L 800 3500 
L 1894 763 
L 2988 3500 
L 3597 3500 
L 2059 -325 
z
" transform="scale(0.015625)"/>
      <path id="DejaVuSans-65" d="M 3597 1894 
L 3597 1613 
L 953 1613 
Q 991 1019 1311 708 
Q 1631 397 2203 397 
Q 2534 397 2845 478 
Q 3156 559 3463 722 
L 3463 178 
Q 3153 47 2828 -22 
Q 2503 -91 2169 -91 
Q 1331 -91 842 396 
Q 353 884 353 1716 
Q 353 2575 817 3079 
Q 1281 3584 2069 3584 
Q 2775 3584 3186 3129 
Q 3597 2675 3597 1894 
z
M 3022 2063 
Q 3016 2534 2758 2815 
Q 2500 3097 2075 3097 
Q 1594 3097 1305 2825 
Q 1016 2553 972 2059 
L 3022 2063 
z
" transform="scale(0.015625)"/>
      <path id="DejaVuSans-6e" d="M 3513 2113 
L 3513 0 
L 2938 0 
L 2938 2094 
Q 2938 2591 2744 2837 
Q 2550 3084 2163 3084 
Q 1697 3084 1428 2787 
Q 1159 2491 1159 1978 
L 1159 0 
L 581 0 
L 581 3500 
L 1159 3500 
L 1159 2956 
Q 1366 3272 1645 3428 
Q 1925 3584 2291 3584 
Q 2894 3584 3203 3211 
Q 3513 2838 3513 2113 
z
" transform="scale(0.015625)"/>
     </defs>
     <use xlink:href="#DejaVuSans-53"/>
     <use xlink:href="#DejaVuSans-79" x="63.476562"/>
     <use xlink:href="#DejaVuSans-65" x="122.65625"/>
     <use xlink:href="#DejaVuSans-6e" x="184.179688"/>
     <use xlink:href="#DejaVuSans-65" x="247.558594"/>
    </g>
   </g>
   <g id="text_3">
    <!-- $\alpha = 7.2^\circ$ -->
    <g style="fill: #ff0000" transform="translate(488.88 274.248) scale(0.1 -0.1)">
     <defs>
      <path id="DejaVuSans-Oblique-3b1" d="M 2619 1628 
L 2622 2350 
Q 2625 3088 2069 3091 
Q 1653 3094 1394 2747 
Q 1069 2319 959 1747 
Q 825 1059 994 731 
Q 1169 397 1547 397 
Q 1966 397 2319 1063 
L 2619 1628 
z
M 2166 3578 
Q 3141 3594 3128 2584 
Q 3128 2584 3616 3500 
L 4128 3500 
L 3119 1603 
L 3109 919 
Q 3109 766 3194 638 
Q 3291 488 3391 488 
L 3669 488 
L 3575 0 
L 3228 0 
Q 2934 0 2722 263 
Q 2622 394 2619 669 
Q 2416 334 2066 50 
Q 1900 -81 1453 -78 
Q 722 -72 456 397 
Q 184 884 353 1747 
Q 534 2675 1009 3097 
Q 1544 3569 2166 3578 
z
" transform="scale(0.015625)"/>
      <path id="DejaVuSans-3d" d="M 678 2906 
L 4684 2906 
L 4684 2381 
L 678 2381 
L 678 2906 
z
M 678 1631 
L 4684 1631 
L 4684 1100 
L 678 1100 
L 678 1631 
z
" transform="scale(0.015625)"/>
      <path id="DejaVuSans-37" d="M 525 4666 
L 3525 4666 
L 3525 4397 
L 1831 0 
L 1172 0 
L 2766 4134 
L 525 4134 
L 525 4666 
z
" transform="scale(0.015625)"/>
      <path id="DejaVuSans-2e" d="M 684 794 
L 1344 794 
L 1344 0 
L 684 0 
L 684 794 
z
" transform="scale(0.015625)"/>
      <path id="DejaVuSans-32" d="M 1228 531 
L 3431 531 
L 3431 0 
L 469 0 
L 469 531 
Q 828 903 1448 1529 
Q 2069 2156 2228 2338 
Q 2531 2678 2651 2914 
Q 2772 3150 2772 3378 
Q 2772 3750 2511 3984 
Q 2250 4219 1831 4219 
Q 1534 4219 1204 4116 
Q 875 4013 500 3803 
L 500 4441 
Q 881 4594 1212 4672 
Q 1544 4750 1819 4750 
Q 2544 4750 2975 4387 
Q 3406 4025 3406 3419 
Q 3406 3131 3298 2873 
Q 3191 2616 2906 2266 
Q 2828 2175 2409 1742 
Q 1991 1309 1228 531 
z
" transform="scale(0.015625)"/>
      <path id="DejaVuSans-2218" d="M 2003 2603 
Q 1753 2603 1581 2429 
Q 1409 2256 1409 2006 
Q 1409 1759 1581 1589 
Q 1753 1419 2003 1419 
Q 2253 1419 2425 1589 
Q 2597 1759 2597 2006 
Q 2597 2253 2423 2428 
Q 2250 2603 2003 2603 
z
M 2003 3006 
Q 2203 3006 2387 2929 
Q 2572 2853 2706 2709 
Q 2850 2569 2922 2390 
Q 2994 2212 2994 2006 
Q 2994 1594 2705 1308 
Q 2416 1022 1997 1022 
Q 1575 1022 1294 1303 
Q 1013 1584 1013 2006 
Q 1013 2425 1300 2715 
Q 1588 3006 2003 3006 
z
" transform="scale(0.015625)"/>
     </defs>
     <use xlink:href="#DejaVuSans-Oblique-3b1" transform="translate(0 0.78125)"/>
     <use xlink:href="#DejaVuSans-3d" transform="translate(85.400391 0.78125)"/>
     <use xlink:href="#DejaVuSans-37" transform="translate(188.671875 0.78125)"/>
     <use xlink:href="#DejaVuSans-2e" transform="translate(252.294922 0.78125)"/>
     <use xlink:href="#DejaVuSans-32" transform="translate(284.082031 0.78125)"/>
     <use xlink:href="#DejaVuSans-2218" transform="translate(362.299805 39.0625) scale(0.7)"/>
    </g>
   </g>
   <g id="text_4">
    <!-- Góc giữa 2 đường nối 2 thành phố đến tâm Trái Đất = góc giữa tia nắng và cột -->
    <g transform="translate(280.767188 63.12) scale(0.12 -0.12)">
     <defs>
      <path id="DejaVuSans-47" d="M 3809 666 
L 3809 1919 
L 2778 1919 
L 2778 2438 
L 4434 2438 
L 4434 434 
Q 4069 175 3628 42 
Q 3188 -91 2688 -91 
Q 1594 -91 976 548 
Q 359 1188 359 2328 
Q 359 3472 976 4111 
Q 1594 4750 2688 4750 
Q 3144 4750 3555 4637 
Q 3966 4525 4313 4306 
L 4313 3634 
Q 3963 3931 3569 4081 
Q 3175 4231 2741 4231 
Q 1884 4231 1454 3753 
Q 1025 3275 1025 2328 
Q 1025 1384 1454 906 
Q 1884 428 2741 428 
Q 3075 428 3337 486 
Q 3600 544 3809 666 
z
" transform="scale(0.015625)"/>
      <path id="DejaVuSans-f3" d="M 1959 3097 
Q 1497 3097 1228 2736 
Q 959 2375 959 1747 
Q 959 1119 1226 758 
Q 1494 397 1959 397 
Q 2419 397 2687 759 
Q 2956 1122 2956 1747 
Q 2956 2369 2687 2733 
Q 2419 3097 1959 3097 
z
M 1959 3584 
Q 2709 3584 3137 3096 
Q 3566 2609 3566 1747 
Q 3566 888 3137 398 
Q 2709 -91 1959 -91 
Q 1206 -91 779 398 
Q 353 888 353 1747 
Q 353 2609 779 3096 
Q 1206 3584 1959 3584 
z
M 2394 5119 
L 3016 5119 
L 1997 3944 
L 1519 3944 
L 2394 5119 
z
" transform="scale(0.015625)"/>
      <path id="DejaVuSans-63" d="M 3122 3366 
L 3122 2828 
Q 2878 2963 2633 3030 
Q 2388 3097 2138 3097 
Q 1578 3097 1268 2742 
Q 959 2388 959 1747 
Q 959 1106 1268 751 
Q 1578 397 2138 397 
Q 2388 397 2633 464 
Q 2878 531 3122 666 
L 3122 134 
Q 2881 22 2623 -34 
Q 2366 -91 2075 -91 
Q 1284 -91 818 406 
Q 353 903 353 1747 
Q 353 2603 823 3093 
Q 1294 3584 2113 3584 
Q 2378 3584 2631 3529 
Q 2884 3475 3122 3366 
z
" transform="scale(0.015625)"/>
      <path id="DejaVuSans-67" d="M 2906 1791 
Q 2906 2416 2648 2759 
Q 2391 3103 1925 3103 
Q 1463 3103 1205 2759 
Q 947 2416 947 1791 
Q 947 1169 1205 825 
Q 1463 481 1925 481 
Q 2391 481 2648 825 
Q 2906 1169 2906 1791 
z
M 3481 434 
Q 3481 -459 3084 -895 
Q 2688 -1331 1869 -1331 
Q 1566 -1331 1297 -1286 
Q 1028 -1241 775 -1147 
L 775 -588 
Q 1028 -725 1275 -790 
Q 1522 -856 1778 -856 
Q 2344 -856 2625 -561 
Q 2906 -266 2906 331 
L 2906 616 
Q 2728 306 2450 153 
Q 2172 0 1784 0 
Q 1141 0 747 490 
Q 353 981 353 1791 
Q 353 2603 747 3093 
Q 1141 3584 1784 3584 
Q 2172 3584 2450 3431 
Q 2728 3278 2906 2969 
L 2906 3500 
L 3481 3500 
L 3481 434 
z
" transform="scale(0.015625)"/>
      <path id="DejaVuSans-1eef" d="M 1988 4281 
L 1809 4453 
Q 1741 4516 1689 4545 
Q 1638 4575 1597 4575 
Q 1478 4575 1422 4461 
Q 1366 4347 1359 4091 
L 969 4091 
Q 975 4513 1134 4742 
Q 1294 4972 1578 4972 
Q 1697 4972 1797 4928 
Q 1897 4884 2013 4781 
L 2191 4609 
Q 2259 4547 2311 4517 
Q 2363 4488 2403 4488 
Q 2522 4488 2578 4602 
Q 2634 4716 2641 4972 
L 3031 4972 
Q 3025 4550 2865 4320 
Q 2706 4091 2422 4091 
Q 2303 4091 2203 4134 
Q 2103 4178 1988 4281 
z
M 3094 3106 
L 3094 3478 
Q 3284 3337 3421 3270 
Q 3559 3203 3656 3203 
Q 3800 3203 3872 3289 
Q 3944 3375 3944 3543 
Q 3944 3643 3920 3740 
Q 3897 3837 3850 3934 
L 4266 3934 
Q 4297 3815 4312 3709 
Q 4328 3603 4328 3509 
Q 4328 3128 4192 2948 
Q 4056 2768 3766 2768 
Q 3616 2768 3452 2851 
Q 3288 2934 3094 3106 
z
M 550 1381 
L 550 3500 
L 1125 3500 
L 1125 1403 
Q 1125 906 1319 657 
Q 1513 409 1900 409 
Q 2366 409 2636 706 
Q 2906 1003 2906 1516 
L 2906 3500 
L 3481 3500 
L 3481 0 
L 2906 0 
L 2906 538 
Q 2697 219 2420 64 
Q 2144 -91 1778 -91 
Q 1175 -91 862 284 
Q 550 659 550 1381 
z
M 1997 3584 
L 1997 3584 
z
" transform="scale(0.015625)"/>
      <path id="DejaVuSans-61" d="M 2194 1759 
Q 1497 1759 1228 1600 
Q 959 1441 959 1056 
Q 959 750 1161 570 
Q 1363 391 1709 391 
Q 2188 391 2477 730 
Q 2766 1069 2766 1631 
L 2766 1759 
L 2194 1759 
z
M 3341 1997 
L 3341 0 
L 2766 0 
L 2766 531 
Q 2569 213 2275 61 
Q 1981 -91 1556 -91 
Q 1019 -91 701 211 
Q 384 513 384 1019 
Q 384 1609 779 1909 
Q 1175 2209 1959 2209 
L 2766 2209 
L 2766 2266 
Q 2766 2663 2505 2880 
Q 2244 3097 1772 3097 
Q 1472 3097 1187 3025 
Q 903 2953 641 2809 
L 641 3341 
Q 956 3463 1253 3523 
Q 1550 3584 1831 3584 
Q 2591 3584 2966 3190 
Q 3341 2797 3341 1997 
z
" transform="scale(0.015625)"/>
      <path id="DejaVuSans-111" d="M 2906 2969 
L 2906 4013 
L 1888 4013 
L 1888 4403 
L 2906 4403 
L 2906 4863 
L 3481 4863 
L 3481 4403 
L 3963 4403 
L 3963 4013 
L 3481 4013 
L 3481 0 
L 2906 0 
L 2906 525 
Q 2725 213 2448 61 
Q 2172 -91 1784 -91 
Q 1150 -91 751 415 
Q 353 922 353 1747 
Q 353 2572 751 3078 
Q 1150 3584 1784 3584 
Q 2172 3584 2448 3432 
Q 2725 3281 2906 2969 
z
M 947 1747 
Q 947 1113 1208 752 
Q 1469 391 1925 391 
Q 2381 391 2643 752 
Q 2906 1113 2906 1747 
Q 2906 2381 2643 2742 
Q 2381 3103 1925 3103 
Q 1469 3103 1208 2742 
Q 947 2381 947 1747 
z
" transform="scale(0.015625)"/>
      <path id="DejaVuSans-1b0" d="M 3094 3106 
L 3094 3478 
Q 3284 3337 3421 3270 
Q 3559 3203 3656 3203 
Q 3800 3203 3872 3289 
Q 3944 3375 3944 3543 
Q 3944 3643 3920 3740 
Q 3897 3837 3850 3934 
L 4266 3934 
Q 4297 3815 4312 3709 
Q 4328 3603 4328 3509 
Q 4328 3128 4192 2948 
Q 4056 2768 3766 2768 
Q 3616 2768 3452 2851 
Q 3288 2934 3094 3106 
z
M 550 1381 
L 550 3500 
L 1125 3500 
L 1125 1403 
Q 1125 906 1319 657 
Q 1513 409 1900 409 
Q 2366 409 2636 706 
Q 2906 1003 2906 1516 
L 2906 3500 
L 3481 3500 
L 3481 0 
L 2906 0 
L 2906 538 
Q 2697 219 2420 64 
Q 2144 -91 1778 -91 
Q 1175 -91 862 284 
Q 550 659 550 1381 
z
M 1997 3584 
L 1997 3584 
z
" transform="scale(0.015625)"/>
      <path id="DejaVuSans-1edd" d="M 1506 5119 
L 2388 3950 
L 1909 3950 
L 891 5119 
L 1506 5119 
z
M 2625 3106 
L 2625 3478 
Q 2816 3337 2953 3270 
Q 3091 3203 3188 3203 
Q 3331 3203 3403 3289 
Q 3475 3375 3475 3543 
Q 3475 3643 3451 3740 
Q 3428 3837 3381 3934 
L 3797 3934 
Q 3828 3815 3843 3709 
Q 3859 3603 3859 3509 
Q 3859 3128 3723 2948 
Q 3588 2768 3297 2768 
Q 3147 2768 2983 2851 
Q 2819 2934 2625 3106 
z
M 1975 3097 
Q 1513 3097 1244 2736 
Q 975 2375 975 1747 
Q 975 1119 1242 758 
Q 1509 397 1975 397 
Q 2434 397 2703 759 
Q 2972 1122 2972 1747 
Q 2972 2369 2703 2733 
Q 2434 3097 1975 3097 
z
M 1975 3584 
Q 2725 3584 3153 3096 
Q 3581 2609 3581 1747 
Q 3581 888 3153 398 
Q 2725 -91 1975 -91 
Q 1222 -91 795 398 
Q 369 888 369 1747 
Q 369 2609 795 3096 
Q 1222 3584 1975 3584 
z
" transform="scale(0.015625)"/>
      <path id="DejaVuSans-1ed1" d="M 1663 4775 
L 2250 4775 
L 2909 3944 
L 2475 3944 
L 1956 4500 
L 1438 3944 
L 1003 3944 
L 1663 4775 
z
M 3266 5416 
L 3844 5416 
L 3131 4591 
L 2653 4591 
L 3266 5416 
z
M 1959 3097 
Q 1497 3097 1228 2736 
Q 959 2375 959 1747 
Q 959 1119 1226 758 
Q 1494 397 1959 397 
Q 2419 397 2687 759 
Q 2956 1122 2956 1747 
Q 2956 2369 2687 2733 
Q 2419 3097 1959 3097 
z
M 1959 3584 
Q 2709 3584 3137 3096 
Q 3566 2609 3566 1747 
Q 3566 888 3137 398 
Q 2709 -91 1959 -91 
Q 1206 -91 779 398 
Q 353 888 353 1747 
Q 353 2609 779 3096 
Q 1206 3584 1959 3584 
z
" transform="scale(0.015625)"/>
      <path id="DejaVuSans-68" d="M 3513 2113 
L 3513 0 
L 2938 0 
L 2938 2094 
Q 2938 2591 2744 2837 
Q 2550 3084 2163 3084 
Q 1697 3084 1428 2787 
Q 1159 2491 1159 1978 
L 1159 0 
L 581 0 
L 581 4863 
L 1159 4863 
L 1159 2956 
Q 1366 3272 1645 3428 
Q 1925 3584 2291 3584 
Q 2894 3584 3203 3211 
Q 3513 2838 3513 2113 
z
" transform="scale(0.015625)"/>
      <path id="DejaVuSans-e0" d="M 2194 1759 
Q 1497 1759 1228 1600 
Q 959 1441 959 1056 
Q 959 750 1161 570 
Q 1363 391 1709 391 
Q 2188 391 2477 730 
Q 2766 1069 2766 1631 
L 2766 1759 
L 2194 1759 
z
M 3341 1997 
L 3341 0 
L 2766 0 
L 2766 531 
Q 2569 213 2275 61 
Q 1981 -91 1556 -91 
Q 1019 -91 701 211 
Q 384 513 384 1019 
Q 384 1609 779 1909 
Q 1175 2209 1959 2209 
L 2766 2209 
L 2766 2266 
Q 2766 2663 2505 2880 
Q 2244 3097 1772 3097 
Q 1472 3097 1187 3025 
Q 903 2953 641 2809 
L 641 3341 
Q 956 3463 1253 3523 
Q 1550 3584 1831 3584 
Q 2591 3584 2966 3190 
Q 3341 2797 3341 1997 
z
M 1403 5119 
L 2284 3950 
L 1806 3950 
L 788 5119 
L 1403 5119 
z
" transform="scale(0.015625)"/>
      <path id="DejaVuSans-70" d="M 1159 525 
L 1159 -1331 
L 581 -1331 
L 581 3500 
L 1159 3500 
L 1159 2969 
Q 1341 3281 1617 3432 
Q 1894 3584 2278 3584 
Q 2916 3584 3314 3078 
Q 3713 2572 3713 1747 
Q 3713 922 3314 415 
Q 2916 -91 2278 -91 
Q 1894 -91 1617 61 
Q 1341 213 1159 525 
z
M 3116 1747 
Q 3116 2381 2855 2742 
Q 2594 3103 2138 3103 
Q 1681 3103 1420 2742 
Q 1159 2381 1159 1747 
Q 1159 1113 1420 752 
Q 1681 391 2138 391 
Q 2594 391 2855 752 
Q 3116 1113 3116 1747 
z
" transform="scale(0.015625)"/>
      <path id="DejaVuSans-1ebf" d="M 1744 4775 
L 2331 4775 
L 2991 3944 
L 2556 3944 
L 2038 4500 
L 1519 3944 
L 1084 3944 
L 1744 4775 
z
M 3347 5416 
L 3925 5416 
L 3213 4591 
L 2734 4591 
L 3347 5416 
z
M 3597 1894 
L 3597 1613 
L 953 1613 
Q 991 1019 1311 708 
Q 1631 397 2203 397 
Q 2534 397 2845 478 
Q 3156 559 3463 722 
L 3463 178 
Q 3153 47 2828 -22 
Q 2503 -91 2169 -91 
Q 1331 -91 842 396 
Q 353 884 353 1716 
Q 353 2575 817 3079 
Q 1281 3584 2069 3584 
Q 2775 3584 3186 3129 
Q 3597 2675 3597 1894 
z
M 3022 2063 
Q 3016 2534 2758 2815 
Q 2500 3097 2075 3097 
Q 1594 3097 1305 2825 
Q 1016 2553 972 2059 
L 3022 2063 
z
" transform="scale(0.015625)"/>
      <path id="DejaVuSans-e2" d="M 2194 1759 
Q 1497 1759 1228 1600 
Q 959 1441 959 1056 
Q 959 750 1161 570 
Q 1363 391 1709 391 
Q 2188 391 2477 730 
Q 2766 1069 2766 1631 
L 2766 1759 
L 2194 1759 
z
M 3341 1997 
L 3341 0 
L 2766 0 
L 2766 531 
Q 2569 213 2275 61 
Q 1981 -91 1556 -91 
Q 1019 -91 701 211 
Q 384 513 384 1019 
Q 384 1609 779 1909 
Q 1175 2209 1959 2209 
L 2766 2209 
L 2766 2266 
Q 2766 2663 2505 2880 
Q 2244 3097 1772 3097 
Q 1472 3097 1187 3025 
Q 903 2953 641 2809 
L 641 3341 
Q 956 3463 1253 3523 
Q 1550 3584 1831 3584 
Q 2591 3584 2966 3190 
Q 3341 2797 3341 1997 
z
M 1625 5119 
L 2088 5119 
L 2853 3944 
L 2419 3944 
L 1856 4709 
L 1294 3944 
L 859 3944 
L 1625 5119 
z
" transform="scale(0.015625)"/>
      <path id="DejaVuSans-6d" d="M 3328 2828 
Q 3544 3216 3844 3400 
Q 4144 3584 4550 3584 
Q 5097 3584 5394 3201 
Q 5691 2819 5691 2113 
L 5691 0 
L 5113 0 
L 5113 2094 
Q 5113 2597 4934 2840 
Q 4756 3084 4391 3084 
Q 3944 3084 3684 2787 
Q 3425 2491 3425 1978 
L 3425 0 
L 2847 0 
L 2847 2094 
Q 2847 2600 2669 2842 
Q 2491 3084 2119 3084 
Q 1678 3084 1418 2786 
Q 1159 2488 1159 1978 
L 1159 0 
L 581 0 
L 581 3500 
L 1159 3500 
L 1159 2956 
Q 1356 3278 1631 3431 
Q 1906 3584 2284 3584 
Q 2666 3584 2933 3390 
Q 3200 3197 3328 2828 
z
" transform="scale(0.015625)"/>
      <path id="DejaVuSans-1eaf" d="M 863 4756 
L 1231 4756 
Q 1272 4587 1426 4498 
Q 1581 4409 1841 4409 
Q 2097 4409 2248 4495 
Q 2400 4581 2450 4756 
L 2819 4756 
Q 2788 4384 2538 4192 
Q 2288 4000 1841 4000 
Q 1391 4000 1142 4190 
Q 894 4381 863 4756 
z
M 2175 5613 
L 2753 5613 
L 2041 4788 
L 1563 4788 
L 2175 5613 
z
M 2194 1759 
Q 1497 1759 1228 1600 
Q 959 1441 959 1056 
Q 959 750 1161 570 
Q 1363 391 1709 391 
Q 2188 391 2477 730 
Q 2766 1069 2766 1631 
L 2766 1759 
L 2194 1759 
z
M 3341 1997 
L 3341 0 
L 2766 0 
L 2766 531 
Q 2569 213 2275 61 
Q 1981 -91 1556 -91 
Q 1019 -91 701 211 
Q 384 513 384 1019 
Q 384 1609 779 1909 
Q 1175 2209 1959 2209 
L 2766 2209 
L 2766 2266 
Q 2766 2663 2505 2880 
Q 2244 3097 1772 3097 
Q 1472 3097 1187 3025 
Q 903 2953 641 2809 
L 641 3341 
Q 956 3463 1253 3523 
Q 1550 3584 1831 3584 
Q 2591 3584 2966 3190 
Q 3341 2797 3341 1997 
z
" transform="scale(0.015625)"/>
      <path id="DejaVuSans-76" d="M 191 3500 
L 800 3500 
L 1894 563 
L 2988 3500 
L 3597 3500 
L 2284 0 
L 1503 0 
L 191 3500 
z
" transform="scale(0.015625)"/>
      <path id="DejaVuSans-1ed9" d="M 1666 -441 
L 2241 -441 
L 2241 -1172 
L 1666 -1172 
L 1666 -441 
z
M 1959 3097 
Q 1497 3097 1228 2736 
Q 959 2375 959 1747 
Q 959 1119 1226 758 
Q 1494 397 1959 397 
Q 2419 397 2687 759 
Q 2956 1122 2956 1747 
Q 2956 2369 2687 2733 
Q 2419 3097 1959 3097 
z
M 1959 3584 
Q 2709 3584 3137 3096 
Q 3566 2609 3566 1747 
Q 3566 888 3137 398 
Q 2709 -91 1959 -91 
Q 1206 -91 779 398 
Q 353 888 353 1747 
Q 353 2609 779 3096 
Q 1206 3584 1959 3584 
z
M 1666 -441 
L 2241 -441 
L 2241 -1172 
L 1666 -1172 
L 1666 -441 
z
M 1728 5119 
L 2191 5119 
L 2956 3944 
L 2522 3944 
L 1959 4709 
L 1397 3944 
L 963 3944 
L 1728 5119 
z
" transform="scale(0.015625)"/>
     </defs>
     <use xlink:href="#DejaVuSans-47"/>
     <use xlink:href="#DejaVuSans-f3" x="77.490234"/>
     <use xlink:href="#DejaVuSans-63" x="138.671875"/>
     <use xlink:href="#DejaVuSans-20" x="193.652344"/>
     <use xlink:href="#DejaVuSans-67" x="225.439453"/>
     <use xlink:href="#DejaVuSans-69" x="288.916016"/>
     <use xlink:href="#DejaVuSans-1eef" x="316.699219"/>
     <use xlink:href="#DejaVuSans-61" x="380.078125"/>
     <use xlink:href="#DejaVuSans-20" x="441.357422"/>
     <use xlink:href="#DejaVuSans-32" x="473.144531"/>
     <use xlink:href="#DejaVuSans-20" x="536.767578"/>
     <use xlink:href="#DejaVuSans-111" x="568.554688"/>
     <use xlink:href="#DejaVuSans-1b0" x="632.03125"/>
     <use xlink:href="#DejaVuSans-1edd" x="695.410156"/>
     <use xlink:href="#DejaVuSans-6e" x="756.591797"/>
     <use xlink:href="#DejaVuSans-67" x="819.970703"/>
     <use xlink:href="#DejaVuSans-20" x="883.447266"/>
     <use xlink:href="#DejaVuSans-6e" x="915.234375"/>
     <use xlink:href="#DejaVuSans-1ed1" x="978.613281"/>
     <use xlink:href="#DejaVuSans-69" x="1039.794922"/>
     <use xlink:href="#DejaVuSans-20" x="1067.578125"/>
     <use xlink:href="#DejaVuSans-32" x="1099.365234"/>
     <use xlink:href="#DejaVuSans-20" x="1162.988281"/>
     <use xlink:href="#DejaVuSans-74" x="1194.775391"/>
     <use xlink:href="#DejaVuSans-68" x="1233.984375"/>
     <use xlink:href="#DejaVuSans-e0" x="1297.363281"/>
     <use xlink:href="#DejaVuSans-6e" x="1358.642578"/>
     <use xlink:href="#DejaVuSans-68" x="1422.021484"/>
     <use xlink:href="#DejaVuSans-20" x="1485.400391"/>
     <use xlink:href="#DejaVuSans-70" x="1517.1875"/>
     <use xlink:href="#DejaVuSans-68" x="1580.664062"/>
     <use xlink:href="#DejaVuSans-1ed1" x="1644.042969"/>
     <use xlink:href="#DejaVuSans-20" x="1705.224609"/>
     <use xlink:href="#DejaVuSans-111" x="1737.011719"/>
     <use xlink:href="#DejaVuSans-1ebf" x="1800.488281"/>
     <use xlink:href="#DejaVuSans-6e" x="1862.011719"/>
     <use xlink:href="#DejaVuSans-20" x="1925.390625"/>
     <use xlink:href="#DejaVuSans-74" x="1957.177734"/>
     <use xlink:href="#DejaVuSans-e2" x="1996.386719"/>
     <use xlink:href="#DejaVuSans-6d" x="2057.666016"/>
     <use xlink:href="#DejaVuSans-20" x="2155.078125"/>
     <use xlink:href="#DejaVuSans-54" x="2186.865234"/>
     <use xlink:href="#DejaVuSans-72" x="2233.199219"/>
     <use xlink:href="#DejaVuSans-e1" x="2274.3125"/>
     <use xlink:href="#DejaVuSans-69" x="2335.591797"/>
     <use xlink:href="#DejaVuSans-20" x="2363.375"/>
     <use xlink:href="#DejaVuSans-110" x="2395.162109"/>
     <use xlink:href="#DejaVuSans-1ea5" x="2472.652344"/>
     <use xlink:href="#DejaVuSans-74" x="2533.931641"/>
     <use xlink:href="#DejaVuSans-20" x="2573.140625"/>
     <use xlink:href="#DejaVuSans-3d" x="2604.927734"/>
     <use xlink:href="#DejaVuSans-20" x="2688.716797"/>
     <use xlink:href="#DejaVuSans-67" x="2720.503906"/>
     <use xlink:href="#DejaVuSans-f3" x="2783.980469"/>
     <use xlink:href="#DejaVuSans-63" x="2845.162109"/>
     <use xlink:href="#DejaVuSans-20" x="2900.142578"/>
     <use xlink:href="#DejaVuSans-67" x="2931.929688"/>
     <use xlink:href="#DejaVuSans-69" x="2995.40625"/>
     <use xlink:href="#DejaVuSans-1eef" x="3023.189453"/>
     <use xlink:href="#DejaVuSans-61" x="3086.568359"/>
     <use xlink:href="#DejaVuSans-20" x="3147.847656"/>
     <use xlink:href="#DejaVuSans-74" x="3179.634766"/>
     <use xlink:href="#DejaVuSans-69" x="3218.84375"/>
     <use xlink:href="#DejaVuSans-61" x="3246.626953"/>
     <use xlink:href="#DejaVuSans-20" x="3307.90625"/>
     <use xlink:href="#DejaVuSans-6e" x="3339.693359"/>
     <use xlink:href="#DejaVuSans-1eaf" x="3403.072266"/>
     <use xlink:href="#DejaVuSans-6e" x="3464.351562"/>
     <use xlink:href="#DejaVuSans-67" x="3527.730469"/>
     <use xlink:href="#DejaVuSans-20" x="3591.207031"/>
     <use xlink:href="#DejaVuSans-76" x="3622.994141"/>
     <use xlink:href="#DejaVuSans-e0" x="3682.173828"/>
     <use xlink:href="#DejaVuSans-20" x="3743.453125"/>
     <use xlink:href="#DejaVuSans-63" x="3775.240234"/>
     <use xlink:href="#DejaVuSans-1ed9" x="3830.220703"/>
     <use xlink:href="#DejaVuSans-74" x="3891.402344"/>
    </g>
   </g>
  </g>
 </g>
 <defs>
  <clipPath id="p577630e70e">
   <rect x="267.12" y="69.12" width="498.96" height="443.52"/>
  </clipPath>
 </defs>
</svg>
